# xmcd CD database file
#
# Track frame offsets:
#	150
#	12497
#	25345
#	40857
#	68600
#	103430
#	115935
#	145347
#	164730
#	177292
#	212007
#	226427
#	241275
#	258867
#
# Disc length: 3741 seconds
#
# Revision: 0
# Processed by: cddbd v1.5.1PL0 Copyright (c) Steve Scherf et al.
# Submitted via: CDex 1.51
#
DISCID=c70e9b0e
DTITLE=Various Artist - Lonesome and Blue. Blue Note heads way out west
DYEAR=2002
DGENRE=Jazz
TTITLE0=Walking the florr over you_The Three Sounds
TTITLE1=You are my sunshine_The Three Sounds
TTITLE2=I can't stop loving you_Grant Green
TTITLE3=Take these chains from my heart_Grant Green
TTITLE4=San Antonio Rose_Don Wilkerson
TTITLE5=You don't know me_Dodo Greene
TTITLE6=Ode to Billie Joe_Lou Donaldson
TTITLE7=Little green apples_Stanley Turrentine
TTITLE8=Harper Valley PTA_The Three Sounds
TTITLE9=On the trail_Donald Byrd
TTITLE10=You're good for me_Lou Rawls
TTITLE11=Cold cold heart_Joe Pass Trio
TTITLE12=Wichita lineman_Bobby Hutcherson
TTITLE13=I'm so lonesome I could cry_Cassandra Wilson
EXTD=YEAR: 2002
EXTT0=
EXTT1=
EXTT2=
EXTT3=
EXTT4=
EXTT5=
EXTT6=
EXTT7=
EXTT8=
EXTT9=
EXTT10=
EXTT11=
EXTT12=
EXTT13=
PLAYORDER=
